<mxfile host="app.diagrams.net" modified="2021-12-28T08:35:02.544Z" agent="5.0 (Windows NT 10.0; Win64; x64) AppleWebKit/537.36 (KHTML, like Gecko) Chrome/96.0.4664.110 Safari/537.36" etag="pA9yiIK1Teklw3OBMNnW" version="16.1.0" type="github">
  <diagram id="kgpKYQtTHZ0yAKxKKP6v" name="Page-1">
    <mxGraphModel dx="1221" dy="676" grid="1" gridSize="10" guides="1" tooltips="1" connect="1" arrows="1" fold="1" page="1" pageScale="1" pageWidth="850" pageHeight="1100" math="0" shadow="0">
      <root>
        <mxCell id="0" />
        <mxCell id="1" parent="0" />
        <mxCell id="3nuBFxr9cyL0pnOWT2aG-1" value="MyPage" style="shape=umlLifeline;perimeter=lifelinePerimeter;container=1;collapsible=0;recursiveResize=0;rounded=0;shadow=0;strokeWidth=1;" parent="1" vertex="1">
          <mxGeometry x="130" y="80" width="100" height="380" as="geometry" />
        </mxCell>
        <mxCell id="3nuBFxr9cyL0pnOWT2aG-2" value="" style="points=[];perimeter=orthogonalPerimeter;rounded=0;shadow=0;strokeWidth=1;" parent="3nuBFxr9cyL0pnOWT2aG-1" vertex="1">
          <mxGeometry x="45" y="70" width="10" height="200" as="geometry" />
        </mxCell>
        <mxCell id="3nuBFxr9cyL0pnOWT2aG-5" value="MyPageController" style="shape=umlLifeline;perimeter=lifelinePerimeter;container=1;collapsible=0;recursiveResize=0;rounded=0;shadow=0;strokeWidth=1;" parent="1" vertex="1">
          <mxGeometry x="310" y="80" width="100" height="350" as="geometry" />
        </mxCell>
        <mxCell id="3nuBFxr9cyL0pnOWT2aG-6" value="" style="points=[];perimeter=orthogonalPerimeter;rounded=0;shadow=0;strokeWidth=1;" parent="3nuBFxr9cyL0pnOWT2aG-5" vertex="1">
          <mxGeometry x="45" y="80" width="10" height="270" as="geometry" />
        </mxCell>
        <mxCell id="3nuBFxr9cyL0pnOWT2aG-7" value="3 : 마이페이지 조회" style="verticalAlign=bottom;endArrow=open;dashed=1;endSize=8;shadow=0;strokeWidth=1;exitX=-0.233;exitY=0.197;exitDx=0;exitDy=0;exitPerimeter=0;entryX=1.001;entryY=0.314;entryDx=0;entryDy=0;entryPerimeter=0;" parent="1" source="3nuBFxr9cyL0pnOWT2aG-6" target="3nuBFxr9cyL0pnOWT2aG-2" edge="1">
          <mxGeometry x="-0.0657" y="-13" relative="1" as="geometry">
            <mxPoint x="190" y="213" as="targetPoint" />
            <mxPoint x="330" y="213" as="sourcePoint" />
            <Array as="points">
              <mxPoint x="300" y="213" />
              <mxPoint x="280" y="213" />
            </Array>
            <mxPoint as="offset" />
          </mxGeometry>
        </mxCell>
        <mxCell id="3nuBFxr9cyL0pnOWT2aG-8" value="2 : 화면요청" style="verticalAlign=bottom;endArrow=block;entryX=0;entryY=0;shadow=0;strokeWidth=1;" parent="1" source="3nuBFxr9cyL0pnOWT2aG-2" target="3nuBFxr9cyL0pnOWT2aG-6" edge="1">
          <mxGeometry y="20" relative="1" as="geometry">
            <mxPoint x="285" y="160" as="sourcePoint" />
            <mxPoint as="offset" />
          </mxGeometry>
        </mxCell>
        <mxCell id="VxfPWnnYO-G0tix98ddX-3" value="회원" style="shape=umlLifeline;participant=umlActor;perimeter=lifelinePerimeter;whiteSpace=wrap;html=1;container=1;collapsible=0;recursiveResize=0;verticalAlign=top;spacingTop=36;outlineConnect=0;" vertex="1" parent="1">
          <mxGeometry x="40" y="80" width="30" height="300" as="geometry" />
        </mxCell>
        <mxCell id="VxfPWnnYO-G0tix98ddX-4" value="1 : 마이페이지 접속" style="verticalAlign=bottom;endArrow=block;shadow=0;strokeWidth=1;entryX=0.06;entryY=0.017;entryDx=0;entryDy=0;entryPerimeter=0;" edge="1" parent="1" source="VxfPWnnYO-G0tix98ddX-3" target="3nuBFxr9cyL0pnOWT2aG-2">
          <mxGeometry x="0.0339" y="11" relative="1" as="geometry">
            <mxPoint x="195" y="170.0000000000001" as="sourcePoint" />
            <mxPoint x="180" y="170" as="targetPoint" />
            <mxPoint x="1" as="offset" />
          </mxGeometry>
        </mxCell>
        <mxCell id="VxfPWnnYO-G0tix98ddX-5" value="ChanginfoController" style="shape=umlLifeline;perimeter=lifelinePerimeter;whiteSpace=wrap;html=1;container=1;collapsible=0;recursiveResize=0;outlineConnect=0;" vertex="1" parent="1">
          <mxGeometry x="460" y="80" width="120" height="440" as="geometry" />
        </mxCell>
        <mxCell id="VxfPWnnYO-G0tix98ddX-10" value="" style="points=[];perimeter=orthogonalPerimeter;rounded=0;shadow=0;strokeWidth=1;" vertex="1" parent="VxfPWnnYO-G0tix98ddX-5">
          <mxGeometry x="55" y="90" width="10" height="350" as="geometry" />
        </mxCell>
        <mxCell id="VxfPWnnYO-G0tix98ddX-23" value="10 : result" style="verticalAlign=bottom;endArrow=open;dashed=1;endSize=8;shadow=0;strokeWidth=1;exitX=0.083;exitY=0.945;exitDx=0;exitDy=0;exitPerimeter=0;" edge="1" parent="VxfPWnnYO-G0tix98ddX-5">
          <mxGeometry x="-0.0664" y="22" relative="1" as="geometry">
            <mxPoint x="70" y="250" as="targetPoint" />
            <mxPoint x="215.8299999999997" y="251.20000000000005" as="sourcePoint" />
            <Array as="points" />
            <mxPoint as="offset" />
          </mxGeometry>
        </mxCell>
        <mxCell id="VxfPWnnYO-G0tix98ddX-6" value="4 : 회원정보 수정 버튼()" style="verticalAlign=bottom;endArrow=block;shadow=0;strokeWidth=1;" edge="1" parent="1" source="3nuBFxr9cyL0pnOWT2aG-2" target="VxfPWnnYO-G0tix98ddX-10">
          <mxGeometry x="0.5175" y="10" relative="1" as="geometry">
            <mxPoint x="190" y="230" as="sourcePoint" />
            <mxPoint x="480" y="245" as="targetPoint" />
            <mxPoint as="offset" />
            <Array as="points">
              <mxPoint x="400" y="240" />
            </Array>
          </mxGeometry>
        </mxCell>
        <mxCell id="VxfPWnnYO-G0tix98ddX-7" value="ChanginfoService" style="shape=umlLifeline;perimeter=lifelinePerimeter;whiteSpace=wrap;html=1;container=1;collapsible=0;recursiveResize=0;outlineConnect=0;" vertex="1" parent="1">
          <mxGeometry x="620" y="80" width="120" height="300" as="geometry" />
        </mxCell>
        <mxCell id="VxfPWnnYO-G0tix98ddX-11" value="" style="points=[];perimeter=orthogonalPerimeter;rounded=0;shadow=0;strokeWidth=1;" vertex="1" parent="VxfPWnnYO-G0tix98ddX-7">
          <mxGeometry x="55" y="90" width="10" height="180" as="geometry" />
        </mxCell>
        <mxCell id="VxfPWnnYO-G0tix98ddX-9" value="5 : changInfo()" style="verticalAlign=bottom;endArrow=block;shadow=0;strokeWidth=1;entryX=-0.133;entryY=0.483;entryDx=0;entryDy=0;entryPerimeter=0;exitX=0.997;exitY=0.247;exitDx=0;exitDy=0;exitPerimeter=0;" edge="1" parent="1" source="VxfPWnnYO-G0tix98ddX-10" target="VxfPWnnYO-G0tix98ddX-11">
          <mxGeometry x="0.001" y="7" relative="1" as="geometry">
            <mxPoint x="530" y="257" as="sourcePoint" />
            <mxPoint x="670" y="257" as="targetPoint" />
            <mxPoint as="offset" />
            <Array as="points">
              <mxPoint x="560" y="257" />
              <mxPoint x="600" y="257" />
              <mxPoint x="630" y="257" />
            </Array>
          </mxGeometry>
        </mxCell>
        <mxCell id="VxfPWnnYO-G0tix98ddX-12" value="ChanginfoMapper" style="shape=umlLifeline;perimeter=lifelinePerimeter;whiteSpace=wrap;html=1;container=1;collapsible=0;recursiveResize=0;outlineConnect=0;" vertex="1" parent="1">
          <mxGeometry x="790" y="80" width="120" height="300" as="geometry" />
        </mxCell>
        <mxCell id="VxfPWnnYO-G0tix98ddX-13" value="" style="points=[];perimeter=orthogonalPerimeter;rounded=0;shadow=0;strokeWidth=1;" vertex="1" parent="VxfPWnnYO-G0tix98ddX-12">
          <mxGeometry x="55" y="90" width="10" height="160" as="geometry" />
        </mxCell>
        <mxCell id="VxfPWnnYO-G0tix98ddX-22" value="9 : result" style="verticalAlign=bottom;endArrow=open;dashed=1;endSize=8;shadow=0;strokeWidth=1;entryX=1.131;entryY=0.92;entryDx=0;entryDy=0;entryPerimeter=0;exitX=0.083;exitY=0.945;exitDx=0;exitDy=0;exitPerimeter=0;" edge="1" parent="VxfPWnnYO-G0tix98ddX-12" source="VxfPWnnYO-G0tix98ddX-13">
          <mxGeometry x="-0.0664" y="22" relative="1" as="geometry">
            <mxPoint x="-105" y="239.99999999999994" as="targetPoint" />
            <mxPoint x="51.309999999999945" y="240.8" as="sourcePoint" />
            <Array as="points" />
            <mxPoint as="offset" />
          </mxGeometry>
        </mxCell>
        <mxCell id="VxfPWnnYO-G0tix98ddX-14" value="6 : changInfo()" style="verticalAlign=bottom;endArrow=block;shadow=0;strokeWidth=1;entryX=-0.167;entryY=0.631;entryDx=0;entryDy=0;entryPerimeter=0;exitX=1.093;exitY=0.559;exitDx=0;exitDy=0;exitPerimeter=0;" edge="1" parent="1" source="VxfPWnnYO-G0tix98ddX-11" target="VxfPWnnYO-G0tix98ddX-13">
          <mxGeometry x="0.001" y="7" relative="1" as="geometry">
            <mxPoint x="690" y="271" as="sourcePoint" />
            <mxPoint x="839.09" y="270" as="targetPoint" />
            <mxPoint as="offset" />
            <Array as="points">
              <mxPoint x="724.62" y="270.76" />
              <mxPoint x="764.62" y="270.76" />
              <mxPoint x="794.62" y="270.76" />
            </Array>
          </mxGeometry>
        </mxCell>
        <mxCell id="VxfPWnnYO-G0tix98ddX-15" value="DB" style="shape=umlLifeline;perimeter=lifelinePerimeter;whiteSpace=wrap;html=1;container=1;collapsible=0;recursiveResize=0;outlineConnect=0;" vertex="1" parent="1">
          <mxGeometry x="960" y="80" width="120" height="300" as="geometry" />
        </mxCell>
        <mxCell id="VxfPWnnYO-G0tix98ddX-16" value="" style="points=[];perimeter=orthogonalPerimeter;rounded=0;shadow=0;strokeWidth=1;" vertex="1" parent="VxfPWnnYO-G0tix98ddX-15">
          <mxGeometry x="55" y="90" width="10" height="160" as="geometry" />
        </mxCell>
        <mxCell id="VxfPWnnYO-G0tix98ddX-17" value="7 : executeQuery()" style="verticalAlign=bottom;endArrow=block;shadow=0;strokeWidth=1;exitX=1.011;exitY=0.691;exitDx=0;exitDy=0;exitPerimeter=0;entryX=-0.233;entryY=0.693;entryDx=0;entryDy=0;entryPerimeter=0;" edge="1" parent="1" source="VxfPWnnYO-G0tix98ddX-13" target="VxfPWnnYO-G0tix98ddX-16">
          <mxGeometry x="0.001" y="7" relative="1" as="geometry">
            <mxPoint x="860.0000000000001" y="280.80000000000007" as="sourcePoint" />
            <mxPoint x="1010" y="281" as="targetPoint" />
            <mxPoint as="offset" />
            <Array as="points">
              <mxPoint x="899.95" y="280.76" />
              <mxPoint x="939.95" y="280.76" />
              <mxPoint x="969.95" y="280.76" />
            </Array>
          </mxGeometry>
        </mxCell>
        <mxCell id="VxfPWnnYO-G0tix98ddX-18" value="ChanginfoPage" style="shape=umlLifeline;perimeter=lifelinePerimeter;whiteSpace=wrap;html=1;container=1;collapsible=0;recursiveResize=0;outlineConnect=0;" vertex="1" parent="1">
          <mxGeometry x="1120" y="80" width="120" height="460" as="geometry" />
        </mxCell>
        <mxCell id="VxfPWnnYO-G0tix98ddX-19" value="" style="points=[];perimeter=orthogonalPerimeter;rounded=0;shadow=0;strokeWidth=1;" vertex="1" parent="VxfPWnnYO-G0tix98ddX-18">
          <mxGeometry x="55" y="90" width="10" height="370" as="geometry" />
        </mxCell>
        <mxCell id="VxfPWnnYO-G0tix98ddX-20" value="8 : result" style="verticalAlign=bottom;endArrow=open;dashed=1;endSize=8;shadow=0;strokeWidth=1;entryX=1.131;entryY=0.92;entryDx=0;entryDy=0;entryPerimeter=0;exitX=-0.238;exitY=0.925;exitDx=0;exitDy=0;exitPerimeter=0;" edge="1" parent="1" source="VxfPWnnYO-G0tix98ddX-16" target="VxfPWnnYO-G0tix98ddX-13">
          <mxGeometry x="-0.0664" y="22" relative="1" as="geometry">
            <mxPoint x="859.9999999999998" y="318.45999999999987" as="targetPoint" />
            <mxPoint x="1010" y="318" as="sourcePoint" />
            <Array as="points" />
            <mxPoint as="offset" />
          </mxGeometry>
        </mxCell>
        <mxCell id="VxfPWnnYO-G0tix98ddX-26" value="alt" style="shape=umlFrame;whiteSpace=wrap;html=1;" vertex="1" parent="1">
          <mxGeometry x="460" y="360" width="790" height="230" as="geometry" />
        </mxCell>
        <mxCell id="VxfPWnnYO-G0tix98ddX-24" value="11 : 회원정보 수정 실패()" style="verticalAlign=bottom;endArrow=block;shadow=0;strokeWidth=1;exitX=1.054;exitY=0.74;exitDx=0;exitDy=0;exitPerimeter=0;" edge="1" parent="1" source="VxfPWnnYO-G0tix98ddX-10" target="VxfPWnnYO-G0tix98ddX-19">
          <mxGeometry x="0.1839" y="20" relative="1" as="geometry">
            <mxPoint x="530" y="430" as="sourcePoint" />
            <mxPoint x="1170" y="370" as="targetPoint" />
            <mxPoint as="offset" />
            <Array as="points">
              <mxPoint x="750" y="430" />
              <mxPoint x="1050" y="430" />
            </Array>
          </mxGeometry>
        </mxCell>
        <mxCell id="VxfPWnnYO-G0tix98ddX-27" value="" style="endArrow=none;dashed=1;html=1;rounded=0;exitX=0;exitY=0.522;exitDx=0;exitDy=0;exitPerimeter=0;entryX=1;entryY=0.522;entryDx=0;entryDy=0;entryPerimeter=0;" edge="1" parent="1" source="VxfPWnnYO-G0tix98ddX-26" target="VxfPWnnYO-G0tix98ddX-26">
          <mxGeometry width="50" height="50" relative="1" as="geometry">
            <mxPoint x="820" y="490" as="sourcePoint" />
            <mxPoint x="870" y="440" as="targetPoint" />
          </mxGeometry>
        </mxCell>
        <mxCell id="VxfPWnnYO-G0tix98ddX-28" value="changinfo == null" style="text;html=1;strokeColor=none;fillColor=none;align=center;verticalAlign=middle;whiteSpace=wrap;rounded=0;" vertex="1" parent="1">
          <mxGeometry x="570" y="380" width="100" height="30" as="geometry" />
        </mxCell>
        <mxCell id="VxfPWnnYO-G0tix98ddX-29" value="changinfo != null" style="text;html=1;strokeColor=none;fillColor=none;align=center;verticalAlign=middle;whiteSpace=wrap;rounded=0;" vertex="1" parent="1">
          <mxGeometry x="570" y="520" width="100" height="30" as="geometry" />
        </mxCell>
        <mxCell id="VxfPWnnYO-G0tix98ddX-30" value="11 : 회원정보 수정()" style="verticalAlign=bottom;endArrow=block;shadow=0;strokeWidth=1;exitX=1.054;exitY=0.74;exitDx=0;exitDy=0;exitPerimeter=0;" edge="1" parent="1">
          <mxGeometry x="0.1848" y="-29" relative="1" as="geometry">
            <mxPoint x="525.27" y="500" as="sourcePoint" />
            <mxPoint x="1174.73" y="501.0000000000001" as="targetPoint" />
            <mxPoint as="offset" />
            <Array as="points">
              <mxPoint x="749.73" y="501" />
              <mxPoint x="1049.73" y="501" />
            </Array>
          </mxGeometry>
        </mxCell>
        <mxCell id="VxfPWnnYO-G0tix98ddX-31" value="회원정보수정" style="text;html=1;strokeColor=none;fillColor=none;align=center;verticalAlign=middle;whiteSpace=wrap;rounded=0;" vertex="1" parent="1">
          <mxGeometry x="40" y="20" width="120" height="30" as="geometry" />
        </mxCell>
        <mxCell id="VxfPWnnYO-G0tix98ddX-32" value="캠핑장 등록" style="text;html=1;strokeColor=none;fillColor=none;align=center;verticalAlign=middle;whiteSpace=wrap;rounded=0;" vertex="1" parent="1">
          <mxGeometry x="40" y="650" width="120" height="30" as="geometry" />
        </mxCell>
        <mxCell id="VxfPWnnYO-G0tix98ddX-34" value="mypage_camp_enrollment Page" style="shape=umlLifeline;perimeter=lifelinePerimeter;container=1;collapsible=0;recursiveResize=0;rounded=0;shadow=0;strokeWidth=1;" vertex="1" parent="1">
          <mxGeometry x="135.75" y="700" width="180" height="380" as="geometry" />
        </mxCell>
        <mxCell id="VxfPWnnYO-G0tix98ddX-35" value="" style="points=[];perimeter=orthogonalPerimeter;rounded=0;shadow=0;strokeWidth=1;" vertex="1" parent="VxfPWnnYO-G0tix98ddX-34">
          <mxGeometry x="84.25" y="70" width="10" height="200" as="geometry" />
        </mxCell>
        <mxCell id="VxfPWnnYO-G0tix98ddX-36" value="mypage_camp_enrollment&#xa;Controller" style="shape=umlLifeline;perimeter=lifelinePerimeter;container=1;collapsible=0;recursiveResize=0;rounded=0;shadow=0;strokeWidth=1;" vertex="1" parent="1">
          <mxGeometry x="365.75" y="700" width="230" height="350" as="geometry" />
        </mxCell>
        <mxCell id="VxfPWnnYO-G0tix98ddX-37" value="" style="points=[];perimeter=orthogonalPerimeter;rounded=0;shadow=0;strokeWidth=1;" vertex="1" parent="VxfPWnnYO-G0tix98ddX-36">
          <mxGeometry x="110" y="80" width="10" height="270" as="geometry" />
        </mxCell>
        <mxCell id="VxfPWnnYO-G0tix98ddX-39" value="2 : 캠핑장 등록 클릭()" style="verticalAlign=bottom;endArrow=block;shadow=0;strokeWidth=1;exitX=1.19;exitY=0.343;exitDx=0;exitDy=0;exitPerimeter=0;" edge="1" parent="1" source="VxfPWnnYO-G0tix98ddX-35">
          <mxGeometry x="-0.0068" y="10" relative="1" as="geometry">
            <mxPoint x="340.75" y="780" as="sourcePoint" />
            <mxPoint x="1" as="offset" />
            <mxPoint x="470" y="839" as="targetPoint" />
            <Array as="points" />
          </mxGeometry>
        </mxCell>
        <mxCell id="VxfPWnnYO-G0tix98ddX-40" value="회원" style="shape=umlLifeline;participant=umlActor;perimeter=lifelinePerimeter;whiteSpace=wrap;html=1;container=1;collapsible=0;recursiveResize=0;verticalAlign=top;spacingTop=36;outlineConnect=0;" vertex="1" parent="1">
          <mxGeometry x="60" y="700" width="30" height="300" as="geometry" />
        </mxCell>
        <mxCell id="VxfPWnnYO-G0tix98ddX-41" value="1 : 캠핑장 정보입력" style="verticalAlign=bottom;endArrow=block;shadow=0;strokeWidth=1;entryX=0.06;entryY=0.017;entryDx=0;entryDy=0;entryPerimeter=0;" edge="1" parent="1" source="VxfPWnnYO-G0tix98ddX-40" target="VxfPWnnYO-G0tix98ddX-35">
          <mxGeometry x="0.0339" y="11" relative="1" as="geometry">
            <mxPoint x="110.00000000000023" y="773.4000000000001" as="sourcePoint" />
            <mxPoint x="235.75" y="790" as="targetPoint" />
            <mxPoint x="1" as="offset" />
          </mxGeometry>
        </mxCell>
        <mxCell id="VxfPWnnYO-G0tix98ddX-42" value="mypage_camp_enrollment&lt;br&gt;Service" style="shape=umlLifeline;perimeter=lifelinePerimeter;whiteSpace=wrap;html=1;container=1;collapsible=0;recursiveResize=0;outlineConnect=0;" vertex="1" parent="1">
          <mxGeometry x="605.75" y="700" width="144.25" height="440" as="geometry" />
        </mxCell>
        <mxCell id="VxfPWnnYO-G0tix98ddX-44" value="7 : result" style="verticalAlign=bottom;endArrow=open;dashed=1;endSize=8;shadow=0;strokeWidth=1;exitX=0.083;exitY=0.945;exitDx=0;exitDy=0;exitPerimeter=0;entryX=1.213;entryY=0.723;entryDx=0;entryDy=0;entryPerimeter=0;" edge="1" parent="VxfPWnnYO-G0tix98ddX-42" target="VxfPWnnYO-G0tix98ddX-43">
          <mxGeometry x="-0.0205" y="19" relative="1" as="geometry">
            <mxPoint x="84.25" y="250" as="targetPoint" />
            <mxPoint x="215.8299999999997" y="251.20000000000005" as="sourcePoint" />
            <Array as="points" />
            <mxPoint as="offset" />
          </mxGeometry>
        </mxCell>
        <mxCell id="VxfPWnnYO-G0tix98ddX-45" value="3 : insertCamp(camp:Camp)" style="verticalAlign=bottom;endArrow=block;shadow=0;strokeWidth=1;exitX=1.425;exitY=0.296;exitDx=0;exitDy=0;exitPerimeter=0;" edge="1" parent="1" source="VxfPWnnYO-G0tix98ddX-37" target="VxfPWnnYO-G0tix98ddX-43">
          <mxGeometry x="-0.0631" y="10" relative="1" as="geometry">
            <mxPoint x="510" y="860" as="sourcePoint" />
            <mxPoint x="535.75" y="865" as="targetPoint" />
            <mxPoint as="offset" />
            <Array as="points">
              <mxPoint x="570" y="860" />
            </Array>
          </mxGeometry>
        </mxCell>
        <mxCell id="VxfPWnnYO-G0tix98ddX-46" value="mypage_camp_enrollment&lt;br&gt;Dao" style="shape=umlLifeline;perimeter=lifelinePerimeter;whiteSpace=wrap;html=1;container=1;collapsible=0;recursiveResize=0;outlineConnect=0;" vertex="1" parent="1">
          <mxGeometry x="765.75" y="700" width="144.25" height="300" as="geometry" />
        </mxCell>
        <mxCell id="VxfPWnnYO-G0tix98ddX-47" value="" style="points=[];perimeter=orthogonalPerimeter;rounded=0;shadow=0;strokeWidth=1;" vertex="1" parent="VxfPWnnYO-G0tix98ddX-46">
          <mxGeometry x="67.13" y="90" width="10" height="180" as="geometry" />
        </mxCell>
        <mxCell id="VxfPWnnYO-G0tix98ddX-48" value="4 : insertCamp(camp:Camp)" style="verticalAlign=bottom;endArrow=block;shadow=0;strokeWidth=1;entryX=-0.133;entryY=0.483;entryDx=0;entryDy=0;entryPerimeter=0;startArrow=none;" edge="1" parent="1" source="VxfPWnnYO-G0tix98ddX-43" target="VxfPWnnYO-G0tix98ddX-47">
          <mxGeometry x="0.0375" y="7" relative="1" as="geometry">
            <mxPoint x="675.75" y="877" as="sourcePoint" />
            <mxPoint x="815.75" y="877" as="targetPoint" />
            <mxPoint as="offset" />
            <Array as="points">
              <mxPoint x="705.75" y="877" />
              <mxPoint x="745.75" y="877" />
              <mxPoint x="775.75" y="877" />
            </Array>
          </mxGeometry>
        </mxCell>
        <mxCell id="VxfPWnnYO-G0tix98ddX-49" value="DB" style="shape=umlLifeline;perimeter=lifelinePerimeter;whiteSpace=wrap;html=1;container=1;collapsible=0;recursiveResize=0;outlineConnect=0;" vertex="1" parent="1">
          <mxGeometry x="935.75" y="700" width="120" height="300" as="geometry" />
        </mxCell>
        <mxCell id="VxfPWnnYO-G0tix98ddX-50" value="" style="points=[];perimeter=orthogonalPerimeter;rounded=0;shadow=0;strokeWidth=1;" vertex="1" parent="VxfPWnnYO-G0tix98ddX-49">
          <mxGeometry x="55" y="90" width="10" height="160" as="geometry" />
        </mxCell>
        <mxCell id="VxfPWnnYO-G0tix98ddX-52" value="5 : executeUpdate()" style="verticalAlign=bottom;endArrow=block;shadow=0;strokeWidth=1;entryX=-0.167;entryY=0.631;entryDx=0;entryDy=0;entryPerimeter=0;exitX=1.093;exitY=0.559;exitDx=0;exitDy=0;exitPerimeter=0;" edge="1" parent="1" source="VxfPWnnYO-G0tix98ddX-47" target="VxfPWnnYO-G0tix98ddX-50">
          <mxGeometry x="0.001" y="7" relative="1" as="geometry">
            <mxPoint x="835.75" y="891" as="sourcePoint" />
            <mxPoint x="984.84" y="890" as="targetPoint" />
            <mxPoint as="offset" />
            <Array as="points">
              <mxPoint x="870.37" y="890.76" />
              <mxPoint x="910.37" y="890.76" />
              <mxPoint x="940.37" y="890.76" />
            </Array>
          </mxGeometry>
        </mxCell>
        <mxCell id="VxfPWnnYO-G0tix98ddX-56" value="MyPage" style="shape=umlLifeline;perimeter=lifelinePerimeter;whiteSpace=wrap;html=1;container=1;collapsible=0;recursiveResize=0;outlineConnect=0;" vertex="1" parent="1">
          <mxGeometry x="1080" y="700" width="120" height="460" as="geometry" />
        </mxCell>
        <mxCell id="VxfPWnnYO-G0tix98ddX-57" value="" style="points=[];perimeter=orthogonalPerimeter;rounded=0;shadow=0;strokeWidth=1;" vertex="1" parent="VxfPWnnYO-G0tix98ddX-56">
          <mxGeometry x="55" y="90" width="10" height="370" as="geometry" />
        </mxCell>
        <mxCell id="VxfPWnnYO-G0tix98ddX-60" value="9 : 마이페이지로 이동" style="verticalAlign=bottom;endArrow=block;shadow=0;strokeWidth=1;exitX=0.977;exitY=0.987;exitDx=0;exitDy=0;exitPerimeter=0;" edge="1" parent="1" source="VxfPWnnYO-G0tix98ddX-37" target="VxfPWnnYO-G0tix98ddX-57">
          <mxGeometry x="0.1839" y="20" relative="1" as="geometry">
            <mxPoint x="675.75" y="1050" as="sourcePoint" />
            <mxPoint x="1315.75" y="990" as="targetPoint" />
            <mxPoint as="offset" />
            <Array as="points">
              <mxPoint x="895.75" y="1050" />
              <mxPoint x="1040" y="1050" />
            </Array>
          </mxGeometry>
        </mxCell>
        <mxCell id="VxfPWnnYO-G0tix98ddX-43" value="" style="points=[];perimeter=orthogonalPerimeter;rounded=0;shadow=0;strokeWidth=1;" vertex="1" parent="1">
          <mxGeometry x="672.87" y="790" width="10" height="220" as="geometry" />
        </mxCell>
        <mxCell id="VxfPWnnYO-G0tix98ddX-68" value="8 : result" style="verticalAlign=bottom;endArrow=open;dashed=1;endSize=8;shadow=0;strokeWidth=1;exitX=-0.12;exitY=0.796;exitDx=0;exitDy=0;exitPerimeter=0;entryX=1.025;entryY=0.684;entryDx=0;entryDy=0;entryPerimeter=0;" edge="1" parent="1" source="VxfPWnnYO-G0tix98ddX-43" target="VxfPWnnYO-G0tix98ddX-37">
          <mxGeometry x="-0.0205" y="19" relative="1" as="geometry">
            <mxPoint x="514.92" y="964.23" as="targetPoint" />
            <mxPoint x="660.7499999999999" y="965.4299999999998" as="sourcePoint" />
            <Array as="points" />
            <mxPoint as="offset" />
          </mxGeometry>
        </mxCell>
        <mxCell id="VxfPWnnYO-G0tix98ddX-51" value="6 : result" style="verticalAlign=bottom;endArrow=open;dashed=1;endSize=8;shadow=0;strokeWidth=1;exitX=0.083;exitY=0.945;exitDx=0;exitDy=0;exitPerimeter=0;entryX=1.092;entryY=0.829;entryDx=0;entryDy=0;entryPerimeter=0;" edge="1" parent="1" source="VxfPWnnYO-G0tix98ddX-50" target="VxfPWnnYO-G0tix98ddX-47">
          <mxGeometry x="-0.0664" y="22" relative="1" as="geometry">
            <mxPoint x="850" y="940" as="targetPoint" />
            <mxPoint x="987.06" y="940.8" as="sourcePoint" />
            <Array as="points" />
            <mxPoint as="offset" />
          </mxGeometry>
        </mxCell>
      </root>
    </mxGraphModel>
  </diagram>
</mxfile>
